<?xml version="1.0" encoding="UTF-8"?>
<svg width="38px" height="38px" viewBox="0 0 38 38" version="1.1" xmlns="http://www.w3.org/2000/svg" xmlns:xlink="http://www.w3.org/1999/xlink">
    <title>dribbble-ball-icon</title>
    <g id="Page-2" stroke="none" stroke-width="1" fill="none" fill-rule="evenodd">
        <g id="about" transform="translate(-745.000000, -6083.000000)">
            <g id="Group-8" transform="translate(0.000000, 4505.000000)">
                <g id="footer" transform="translate(0.000000, 1064.000000)">
                    <g id="dribbble-ball-icon" transform="translate(745.000000, 514.000000)">
                        <rect id="Rectangle" fill-opacity="0" fill="#000000" fill-rule="nonzero" x="0" y="0" width="38" height="38"></rect>
                        <circle id="Oval" fill="#EA4C89" fill-rule="nonzero" cx="19" cy="19" r="18.24"></circle>
                        <path d="M19,0 C8.51086,0 0,8.51086 0,19 C0,29.48914 8.51086,38 19,38 C29.468544,38 38,29.48914 38,19 C38,8.51086 29.468544,0 19,0 Z M31.54988,8.758126 C33.816694,11.51951 35.17679,15.043402 35.21802,18.855752 C34.68222,18.752696 29.324296,17.660538 23.92518,18.340548 C23.801528,18.072686 23.698472,17.784152 23.574858,17.495656 C23.245132,16.71259 22.874176,15.90889 22.503258,15.14642 C28.479404,12.714762 31.199558,9.211504 31.54988,8.758126 Z M19,2.8026026 C23.12148,2.8026026 26.892638,4.34815 29.75704,6.882864 C29.468544,7.295012 27.016252,10.5716 21.246218,12.735358 C18.587852,7.851408 15.64099,3.85358 15.18765,3.235358 C16.40346,2.9468544 17.681134,2.8026026 19,2.8026026 Z M12.09654,4.327554 C12.529284,4.904546 15.41432,8.923008 18.113878,13.703902 C10.53037,15.723412 3.832984,15.6822833 3.1117136,15.6822833 C4.162672,10.654022 7.562912,6.470716 12.09654,4.327554 Z M2.7613878,19.020596 C2.7613878,18.855752 2.7613878,18.690908 2.7613878,18.526026 C3.4620394,18.546622 11.33407,18.649678 19.432744,16.21802 C19.906718,17.124738 20.339462,18.052052 20.75161,18.979404 C20.545536,19.04123 20.318866,19.103056 20.112792,19.164844 C11.746218,21.86444 7.295012,29.241874 6.924094,29.860096 C4.34815,26.995656 2.7613878,23.183306 2.7613878,19.020596 Z M19,35.238616 C15.249476,35.238616 11.78741,33.960942 9.046622,31.81778 C9.335156,31.220192 12.63234,24.87309 21.78198,21.678962 C21.82321,21.658366 21.843806,21.658366 21.885036,21.637732 C24.172446,27.552052 25.099798,32.518424 25.347064,33.940346 C23.38938,34.785238 21.246218,35.238616 19,35.238616 Z M28.04666,32.456636 C27.881778,31.467458 27.01629,26.727756 24.893724,20.895896 C29.983748,20.092196 34.434916,21.411062 34.991312,21.59654 C34.290668,26.109534 31.694128,30.004344 28.04666,32.456636 Z" id="Shape" fill="#C32361"></path>
                    </g>
                </g>
            </g>
        </g>
    </g>
</svg>