<?xml version="1.0" encoding="UTF-8"?>
<svg width="38px" height="38px" viewBox="0 0 38 38" version="1.1" xmlns="http://www.w3.org/2000/svg" xmlns:xlink="http://www.w3.org/1999/xlink">
    <title>icons8-instagram_logo</title>
    <defs>
        <radialGradient cx="37.1748248%" cy="100.072175%" fx="37.1748248%" fy="100.072175%" r="124.653625%" id="radialGradient-1">
            <stop stop-color="#FFDD55" offset="0%"></stop>
            <stop stop-color="#FF543F" offset="32.8%"></stop>
            <stop stop-color="#FC5245" offset="34.8%"></stop>
            <stop stop-color="#E64771" offset="50.4%"></stop>
            <stop stop-color="#D53E91" offset="64.3%"></stop>
            <stop stop-color="#CC39A4" offset="76.1%"></stop>
            <stop stop-color="#C837AB" offset="84.1%"></stop>
        </radialGradient>
        <radialGradient cx="16.0915127%" cy="-1.24849269%" fx="16.0915127%" fy="-1.24849269%" r="82.770185%" id="radialGradient-2">
            <stop stop-color="#4168C9" offset="0%"></stop>
            <stop stop-color="#4168C9" stop-opacity="0" offset="99.9%"></stop>
        </radialGradient>
    </defs>
    <g id="Page-2" stroke="none" stroke-width="1" fill="none" fill-rule="evenodd">
        <g id="about" transform="translate(-827.000000, -6083.000000)" fill-rule="nonzero">
            <g id="Group-8" transform="translate(0.000000, 4505.000000)">
                <g id="footer" transform="translate(0.000000, 1064.000000)">
                    <g id="icons8-instagram_logo" transform="translate(827.000000, 514.000000)">
                        <path d="M29.5684465,37.9799515 L8.46847648,38 C3.82648308,38.0042165 0.0253234812,34.2104417 0.0200484887,29.568448 L0,8.46847692 C-0.00421647683,3.82648328 3.78955813,0.0253234825 8.43155153,0.0200484897 L29.5315215,0 C34.1735149,-0.00421647705 37.9746745,3.78955833 37.9799495,8.43155197 L38,29.5315231 C38.0052695,34.1745717 34.2104399,37.9757315 29.5684465,37.9799515 Z" id="Path" fill="url(#radialGradient-1)"></path>
                        <path d="M29.5684465,37.9799515 L8.46847648,38 C3.82648308,38.0042165 0.0253234812,34.2104417 0.0200484887,29.568448 L0,8.46847692 C-0.00421647683,3.82648328 3.78955813,0.0253234825 8.43155153,0.0200484897 L29.5315215,0 C34.1735149,-0.00421647705 37.9746745,3.78955833 37.9799495,8.43155197 L38,29.5315231 C38.0052695,34.1745717 34.2104399,37.9757315 29.5684465,37.9799515 Z" id="Path" fill="url(#radialGradient-2)"></path>
                        <path d="M19.0005265,26.3855174 C14.9292873,26.3855174 11.615537,23.0728219 11.615537,19.0005275 C11.615537,14.9282331 14.9292873,11.6155376 19.0005265,11.6155376 C23.0717657,11.6155376 26.385516,14.9282331 26.385516,19.0005275 C26.385516,23.0728219 23.0717657,26.3855174 19.0005265,26.3855174 Z M19.0005265,13.7255347 C16.0918956,13.7255347 13.725534,16.0918965 13.725534,19.0005275 C13.725534,21.9091585 16.0918956,24.2755203 19.0005265,24.2755203 C21.9091574,24.2755203 24.275519,21.9091585 24.275519,19.0005275 C24.275519,16.0918965 21.9091574,13.7255347 19.0005265,13.7255347 Z" id="Shape" fill="#FFFFFF"></path>
                        <ellipse id="Oval" fill="#FFFFFF" cx="26.9130153" cy="11.0880383" rx="1.58249775" ry="1.58249783"></ellipse>
                        <path d="M25.3305175,32.7155087 L12.6705355,32.7155087 C8.59929629,32.7155087 5.285546,29.4028133 5.285546,25.3305188 L5.285546,12.6705362 C5.285546,8.59824174 8.59929629,5.28554628 12.6705355,5.28554628 L25.3305175,5.28554628 C29.4017567,5.28554628 32.715507,8.59824174 32.715507,12.6705362 L32.715507,25.3305188 C32.715507,29.4028133 29.4017567,32.7155087 25.3305175,32.7155087 Z M12.6705355,7.39554339 C9.76190464,7.39554339 7.39554301,9.76190515 7.39554301,12.6705362 L7.39554301,25.3305188 C7.39554301,28.2391498 9.76190464,30.6055116 12.6705355,30.6055116 L25.3305175,30.6055116 C28.2391484,30.6055116 30.60551,28.2391498 30.60551,25.3305188 L30.60551,12.6705362 C30.60551,9.76190515 28.2391484,7.39554339 25.3305175,7.39554339 L12.6705355,7.39554339 Z" id="Shape" fill="#FFFFFF"></path>
                    </g>
                </g>
            </g>
        </g>
    </g>
</svg>