<?xml version="1.0" encoding="UTF-8"?>
<svg width="38px" height="38px" viewBox="0 0 38 38" version="1.1" xmlns="http://www.w3.org/2000/svg" xmlns:xlink="http://www.w3.org/1999/xlink">
    <title>icons8-linkedin</title>
    <defs>
        <linearGradient x1="50%" y1="0%" x2="50%" y2="100%" id="linearGradient-1">
            <stop stop-color="#00B0EC" offset="0%"></stop>
            <stop stop-color="#0078D4" offset="100%"></stop>
        </linearGradient>
    </defs>
    <g id="Page-2" stroke="none" stroke-width="1" fill="none" fill-rule="evenodd">
        <g id="about" transform="translate(-663.000000, -6083.000000)" fill-rule="nonzero">
            <g id="Group-8" transform="translate(0.000000, 4505.000000)">
                <g id="footer" transform="translate(0.000000, 1064.000000)">
                    <g id="icons8-linkedin" transform="translate(663.000000, 514.000000)">
                        <path d="M38,32.7222222 C38,35.6376667 35.6376667,38 32.7222222,38 L5.27777778,38 C2.36338889,38 0,35.6376667 0,32.7222222 L0,5.27777778 C0,2.36233333 2.36338889,0 5.27777778,0 L32.7222222,0 C35.6376667,0 38,2.36233333 38,5.27777778 L38,32.7222222 Z" id="Path" fill="url(#linearGradient-1)"></path>
                        <path d="M25.3333333,32.7222222 L25.3333333,22.0621667 C25.3333333,20.2793333 24.4688333,19.2142778 23.0195556,19.2142778 C22.1592778,19.2142778 21.527,19.6987778 21.1417222,20.6540556 C21.1237778,20.7216111 21.0984444,20.9971111 21.109,21.8299444 L21.1111111,32.7222222 L13.7222222,32.7222222 L13.7222222,12.6666667 L21.1111111,12.6666667 L21.1111111,13.7866111 C22.1898889,13.0424444 23.5125,12.6666667 25.0567778,12.6666667 C29.8563889,12.6666667 32.7211667,15.9315 32.7211667,21.4003333 L32.7222222,32.7222222 L25.3333333,32.7222222 Z M5.27777778,32.7222222 L5.27777778,12.6666667 L8.92683333,12.6666667 C6.81255556,12.6666667 5.27777778,11.1128889 5.27777778,8.97116667 C5.27777778,6.83155556 6.83788889,5.27777778 8.987,5.27777778 C11.1107778,5.27777778 12.6233889,6.78827778 12.6666667,8.95005556 C12.6666667,11.1076111 11.1055,12.6666667 8.95638889,12.6666667 L12.6666667,12.6666667 L12.6666667,32.7222222 L5.27777778,32.7222222 Z" id="Shape" fill="#000000" opacity="0.05"></path>
                        <path d="M25.8611111,32.1944444 L25.8611111,22.0621667 C25.8611111,19.9795556 24.7728333,18.6865 23.0195556,18.6865 C21.6526111,18.6865 20.9770556,19.6491667 20.6519444,20.4566667 C20.5653889,20.6667222 20.577,21.5006111 20.5812222,21.8563333 L20.5833333,32.1944444 L14.25,32.1944444 L14.25,13.1944444 L20.5833333,13.1944444 L20.5833333,14.9234444 C21.4225,14.0547222 22.7736111,13.1944444 25.0567778,13.1944444 C29.5249444,13.1944444 32.1933889,16.2618889 32.1933889,21.4003333 L32.1944444,32.1944444 L25.8611111,32.1944444 Z M5.80555556,32.1944444 L5.80555556,13.1944444 L12.1388889,13.1944444 L12.1388889,32.1944444 L5.80555556,32.1944444 Z M8.92683333,12.1388889 C7.11866667,12.1388889 5.80555556,10.8067778 5.80555556,8.97116667 C5.80555556,7.13661111 7.144,5.80555556 8.987,5.80555556 C10.8067778,5.80555556 12.1019444,7.10283333 12.1388889,8.96061111 C12.1388889,10.8067778 10.8004444,12.1388889 8.95638889,12.1388889 L8.92683333,12.1388889 Z" id="Shape" fill="#000000" opacity="0.07"></path>
                        <path d="M6.33333333,13.7222222 L11.6111111,13.7222222 L11.6111111,31.6666667 L6.33333333,31.6666667 L6.33333333,13.7222222 Z M8.95638889,11.6111111 L8.92683333,11.6111111 C7.35194444,11.6111111 6.33333333,10.4373333 6.33333333,8.97116667 C6.33333333,7.47333333 7.38361111,6.33333333 8.987,6.33333333 C10.5925,6.33333333 11.5815556,7.47333333 11.6111111,8.97116667 C11.6111111,10.4362778 10.5925,11.6111111 8.95638889,11.6111111 Z M31.6666667,31.6666667 L26.3888889,31.6666667 L26.3888889,22.0621667 C26.3888889,19.7420556 25.0958333,18.1587222 23.0195556,18.1587222 C21.4351667,18.1587222 20.5780556,19.2269444 20.1621667,20.2592778 C20.0101667,20.6287222 20.0555556,21.6505 20.0555556,22.1666667 L20.0555556,31.6666667 L14.7777778,31.6666667 L14.7777778,13.7222222 L20.0555556,13.7222222 L20.0555556,16.4835556 C20.8166111,15.3055556 22.0083333,13.7222222 25.0567778,13.7222222 C28.8335556,13.7222222 31.6656111,16.0972222 31.6656111,21.4003333 L31.6666667,31.6666667 L31.6666667,31.6666667 Z" id="Shape" fill="#FFFFFF"></path>
                    </g>
                </g>
            </g>
        </g>
    </g>
</svg>