<?xml version="1.0" encoding="UTF-8"?>
<svg width="772px" height="553px" viewBox="0 0 772 553" version="1.1" xmlns="http://www.w3.org/2000/svg" xmlns:xlink="http://www.w3.org/1999/xlink">
    <title>Group 13</title>
    <defs>
        <filter x="-31.8%" y="-59.3%" width="163.7%" height="218.6%" filterUnits="objectBoundingBox" id="filter-1">
            <feGaussianBlur stdDeviation="50" in="SourceGraphic"></feGaussianBlur>
        </filter>
        <linearGradient x1="51.312166%" y1="100%" x2="51.312166%" y2="36.5767402%" id="linearGradient-2">
            <stop stop-color="#FFFFFF" stop-opacity="0" offset="0%"></stop>
            <stop stop-color="#000000" offset="100%"></stop>
        </linearGradient>
    </defs>
    <g id="Page-2" stroke="none" stroke-width="1" fill="none" fill-rule="evenodd">
        <g id="home-copy-2" transform="translate(-334.000000, -2379.000000)">
            <g id="Group-13" transform="translate(388.243627, 2511.218750)">
                <path d="M222.256373,270.78125 C292.120394,270.78125 566.92508,214.145271 566.92508,144.28125 C566.92508,74.4172292 292.120394,17.78125 222.256373,17.78125 C152.392353,17.78125 95.7563734,74.4172292 95.7563734,144.28125 C95.7563734,214.145271 152.392353,270.78125 222.256373,270.78125 Z" id="Oval-Copy-3" fill="" opacity="0.694683983" filter="url(#filter-1)"></path>
                <g id="selected" fill="url(#linearGradient-2)" fill-rule="nonzero" opacity="0.153254191">
                    <path d="M444.690584,22.9492188 L444.690584,48.828125 L470.667146,48.828125 L470.667146,60.9375 L444.690584,60.9375 L444.690584,120.214844 C444.690584,130.46875 450.452303,138.574219 461.292146,138.574219 C466.272615,138.574219 470.471834,137.402344 474.085115,134.960938 L474.085115,134.960938 L474.866365,135.9375 C468.518709,144.726562 456.702303,152.34375 445.667146,152.34375 C426.331209,152.34375 416.66324,142.089844 416.66324,121.582031 L416.66324,121.582031 L416.66324,59.5703125 L401.130068,59.5703972 C402.022309,61.3495883 402.471217,63.2412984 402.471217,65.234375 C402.471217,74.4140625 397.100123,82.03125 387.432155,82.2265625 C379.912623,82.2265625 372.19778,76.953125 372.19778,68.9453125 C372.19778,62.6953125 375.615748,55.46875 381.377467,52.5390625 C379.521998,52.2460937 378.154811,52.1484375 377.471217,52.1484375 C353.44778,52.1484375 347.393092,73.1445312 347.393092,93.4570312 C347.393092,107.128906 350.518092,117.480469 356.768092,124.511719 C363.018092,131.445312 370.928248,134.960938 380.400905,134.960938 C389.873561,134.960938 398.271998,132.324219 405.79153,126.953125 L405.79153,126.953125 L407.061061,127.734375 C396.807155,142.96875 385.381373,153.027344 366.240748,153.222656 C353.057155,153.320312 341.826686,148.535156 332.549342,139.0625 C323.271998,129.589844 318.682155,117.382812 318.584498,102.539062 C318.584498,86.9140625 324.248561,69.921875 336.650905,59.765625 C347.393092,50.8789062 359.795436,46.3867187 373.76028,46.3867187 C380.889186,46.3867187 387.529811,48.2421875 393.486842,51.953125 C396.52246,53.7944016 398.797304,55.8639105 400.298451,58.1358064 C416.830753,51.1691435 431.171054,39.4400297 443.22574,22.9492188 L443.22574,22.9492188 L444.690584,22.9492188 Z M663.504317,0 L663.504317,116.210938 C663.504317,125.097656 664.383224,131.25 666.238692,134.570313 C668.094161,137.890625 672.195724,140.820313 678.54338,143.359375 L678.54338,143.359375 L678.54338,144.140625 C664.578536,145.410156 650.223067,148.4375 635.57463,153.222656 L635.57463,153.222656 L634.695724,153.222656 L634.695724,136.132813 C624.051192,147.460938 612.234786,153.125 599.344161,153.222656 C589.090255,153.320313 579.812911,148.925781 571.51213,140.039063 C563.211349,131.152344 559.109786,119.53125 559.109786,105.175781 C559.109786,93.4570313 562.13713,83.0078125 568.289474,73.828125 C579.812911,56.640625 598.269942,46.3867188 618.973067,46.3867188 C623.07463,46.3867188 628.348067,46.875 634.695724,47.9492188 L634.695724,47.9492188 L634.695724,37.0117188 C634.695724,28.125 633.816817,21.9726563 631.961349,18.5546875 C630.10588,15.234375 625.711349,12.3046875 618.777755,9.765625 L618.777755,9.765625 L618.777755,8.984375 C632.351974,8.10546875 647.000411,5.078125 662.723067,0 L662.723067,0 L663.504317,0 Z M125.617804,46.3867187 C151.887336,46.3867187 166.633429,60.6445312 166.633429,87.0117188 L166.633429,87.0117188 L166.633429,95.2148438 L106.379523,95.2148438 C106.379523,108.007812 109.602179,117.480469 115.949836,123.632812 C122.297492,129.785156 130.500617,132.910156 140.363898,133.007812 C150.227179,133.007812 159.113898,130.078125 167.024054,124.21875 L167.024054,124.21875 L168.000617,125 C156.281867,143.847656 141.535773,153.222656 123.664679,153.222656 C93.1959293,153.417969 77.3756168,130.46875 77.1803043,101.855469 C77.1803043,86.5234375 82.0631168,73.5351562 91.8287418,62.6953125 C101.594367,51.8554687 112.824836,46.484375 125.617804,46.3867187 Z M273.630757,46.3867187 C299.900288,46.3867187 314.646382,60.6445312 314.646382,87.0117188 L314.646382,87.0117188 L314.646382,95.2148438 L254.392475,95.2148438 C254.392475,108.007812 257.615132,117.480469 263.962788,123.632812 C270.310444,129.785156 278.513569,132.910156 288.37685,133.007812 C298.240132,133.007812 307.12685,130.078125 315.037007,124.21875 L315.037007,124.21875 L316.013569,125 C304.294819,143.847656 289.548725,153.222656 271.677632,153.222656 C241.208882,153.417969 225.388569,130.46875 225.193257,101.855469 C225.193257,86.5234375 230.076069,73.5351562 239.841694,62.6953125 C249.607319,51.8554687 260.837788,46.484375 273.630757,46.3867187 Z M514.937294,46.3867187 C541.206826,46.3867187 555.952919,60.6445312 555.952919,87.0117188 L555.952919,87.0117188 L555.952919,95.2148438 L495.699013,95.2148438 C495.699013,108.007812 498.921669,117.480469 505.269326,123.632812 C511.616982,129.785156 519.820107,132.910156 529.683388,133.007812 C539.546669,133.007812 548.433388,130.078125 556.343544,124.21875 L556.343544,124.21875 L557.320107,125 C545.601357,143.847656 530.855263,153.222656 512.984169,153.222656 C482.515419,153.417969 466.695107,130.46875 466.499794,101.855469 C466.499794,86.5234375 471.382607,73.5351562 481.148232,62.6953125 C490.913857,51.8554687 502.144326,46.484375 514.937294,46.3867187 Z M37.6953125,46.3867188 C47.7539063,46.3867188 57.6171875,48.1445312 67.1875,51.7578125 L67.1875,51.7578125 L67.1875,77.734375 L66.40625,77.734375 C55.1757812,60.8398438 45.3125,52.34375 36.8164062,52.34375 C28.515625,52.34375 21.5820312,57.5195312 21.5820312,66.2109375 C21.5820312,75.8789062 32.7148438,81.3476562 40.3320312,84.6679688 C45.5078125,86.9140625 50.6835938,89.3554688 55.859375,91.9921875 C66.796875,97.5585938 74.4140625,107.910156 74.609375,120.410156 C74.609375,143.457031 53.2226562,153.125 33.0078125,153.125 C20.9960938,153.125 10.3515625,150.976562 0.9765625,146.777344 L0.9765625,146.777344 L0,116.601562 L0.9765625,116.601562 C12.5976562,137.011719 23.9257812,147.167969 34.9609375,147.167969 C44.4335938,147.167969 51.953125,141.503906 51.953125,131.640625 C51.953125,127.050781 50.1953125,123.339844 46.6796875,120.410156 C43.1640625,117.480469 38.8671875,114.941406 33.7890625,112.695312 C28.7109375,110.449219 23.6328125,108.105469 18.6523438,105.46875 C8.0078125,99.8046875 0.5859375,90.0390625 0.5859375,77.734375 C0.5859375,57.8125 19.4335938,46.3867188 37.6953125,46.3867188 Z M210.805921,0 L210.805921,123.535156 C210.805921,131.542969 211.684827,137.402344 213.344984,141.015625 C215.00514,144.628906 218.423109,147.65625 223.59889,150 L223.59889,150 L223.59889,150.78125 L169.204359,150.78125 L169.204359,150 C174.38014,147.753906 177.895765,144.726562 179.555921,141.113281 C181.216077,137.5 182.094984,131.640625 181.997327,123.535156 L181.997327,123.535156 L181.997327,37.0117188 C181.997327,28.125 181.118421,21.9726562 179.262952,18.5546875 C177.407484,15.1367188 173.403577,12.2070312 167.055921,9.765625 L167.055921,9.765625 L167.055921,8.984375 C179.84889,8.10546875 194.204359,5.078125 210.024671,0 L210.024671,0 L210.805921,0 Z M617.117599,52.34375 C609.500411,52.34375 602.76213,56.5429688 596.805099,64.9414062 C590.848067,73.3398438 587.91838,83.8867188 587.91838,96.484375 C587.91838,109.082031 591.238692,119.042969 597.879317,126.171875 C604.519942,133.300781 612.430099,136.914062 621.707442,137.011719 C626.394942,137.011719 630.691817,136.035156 634.695724,133.984375 L634.695724,133.984375 L634.695724,63.1835938 C629.129317,55.9570312 623.269942,52.34375 617.117599,52.34375 Z M125.324836,52.34375 C109.504523,52.34375 106.379523,79.296875 106.379523,90.625 L106.379523,90.625 L141.828742,87.4023438 L141.828742,87.4023438 L141.828036,86.7193172 C141.803,75.3220703 141.020148,52.34375 125.324836,52.34375 Z M273.337788,52.34375 C257.517475,52.34375 254.392475,79.296875 254.392475,90.625 L254.392475,90.625 L289.841694,87.4023438 C289.841694,76.2695312 289.353413,52.34375 273.337788,52.34375 Z M514.644326,52.34375 C498.824013,52.34375 495.699013,79.296875 495.699013,90.625 L495.699013,90.625 L531.148232,87.4023438 C531.148232,76.2695312 530.659951,52.34375 514.644326,52.34375 Z" id="Combined-Shape"></path>
                </g>
            </g>
        </g>
    </g>
</svg>